<?xml version="1.0" encoding="utf-8"?>
<!-- Generator: Adobe Illustrator 21.0.0, SVG Export Plug-In . SVG Version: 6.00 Build 0)  -->
<svg version="1.1" id="Layer_1" xmlns="http://www.w3.org/2000/svg" xmlns:xlink="http://www.w3.org/1999/xlink" x="0px" y="0px"
	 viewBox="0 0 24 24" style="enable-background:new 0 0 24 24;" xml:space="preserve">
<path d="M19,12h-3.6c0.2-0.4,0.4-0.8,0.5-1.2c0.3,0.1,0.7,0.2,1.1,0.2c2.2,0,4-1.8,4-4c0-2.2-1.8-4-4-4c-1.9,0-3.5,1.4-3.9,3.2
	C12.8,6.1,12.4,6,12,6c-0.4,0-0.8,0.1-1.1,0.2C10.5,4.4,8.9,3,7,3C4.8,3,3,4.8,3,7c0,2.2,1.8,4,4,4c0.4,0,0.7-0.1,1.1-0.2
	c0.1,0.4,0.3,0.8,0.5,1.2H5c-1.1,0-2,0.9-2,2v3c0,0.6,0.4,1,1,1h4v2c0,0.6,0.4,1,1,1h6c0.6,0,1-0.4,1-1v-2h4c0.6,0,1-0.4,1-1v-3
	C21,12.9,20.1,12,19,12z M17,4c1.7,0,3,1.3,3,3c0,1.7-1.3,3-3,3c-0.4,0-0.7-0.1-1-0.2c-0.1-1.4-0.8-2.5-1.9-3.2
	C14.3,5.1,15.5,4,17,4z M12,7c1.7,0,3,1.3,3,3c0,1.7-1.3,3-3,3s-3-1.3-3-3C9,8.3,10.3,7,12,7z M11,13.9c0.3,0.1,0.7,0.1,1,0.1
	s0.7-0.1,1-0.1c0,0,0,0.1,0,0.1v1h-2v-1C11,14,11,13.9,11,13.9z M8,9.8C7.7,9.9,7.4,10,7,10c-1.7,0-3-1.3-3-3c0-1.7,1.3-3,3-3
	c1.5,0,2.7,1.1,3,2.6C8.8,7.2,8.1,8.4,8,9.8z M8,17H4v-3c0-0.6,0.4-1,1-1h4c0.6,0,1,0.4,1,1v1C8.9,15,8,15.9,8,17z M15,20H9v-3
	c0-0.6,0.4-1,1-1h4c0.6,0,1,0.4,1,1V20z M20,17h-4c0-1.1-0.9-2-2-2v-1c0-0.6,0.4-1,1-1h4c0.6,0,1,0.4,1,1V17z"/>
</svg>
