<?xml version="1.0" encoding="utf-8"?>
<!-- Generator: Adobe Illustrator 21.0.0, SVG Export Plug-In . SVG Version: 6.00 Build 0)  -->
<svg version="1.1" id="Layer_1" xmlns="http://www.w3.org/2000/svg" xmlns:xlink="http://www.w3.org/1999/xlink" x="0px" y="0px"
	 viewBox="0 0 24 24" style="enable-background:new 0 0 24 24;" xml:space="preserve">
<path d="M12,3L12,3c0.3,0,0.5,0.1,0.7,0.3l8,7.9c0.2,0.2,0.3,0.5,0.3,0.8v8c0,0.5-0.4,1-1,1h-4c-0.6,0-1-0.4-1-1v-5c0-0.6-0.4-1-1-1
	h-4c-0.6,0-1,0.4-1,1v5c0,0.6-0.4,1-1,1H4c-0.3,0-0.5-0.1-0.7-0.3C3.1,20.5,3,20.3,3,20l0-8c0-0.3,0.1-0.6,0.3-0.8l8-7.9
	C11.5,3.1,11.7,3,12,3 M12,2c-0.5,0-1,0.2-1.4,0.6l-8,7.9C2.2,10.9,2,11.5,2,12l0,8c0,1.1,0.9,2,2,2h4c1.1,0,2-0.9,2-2v-5h4v5
	c0,1.1,0.9,2,2,2h4c1.1,0,2-0.9,2-2v-8c0-0.5-0.2-1.1-0.6-1.5l-8-7.9C13,2.2,12.5,2,12,2L12,2z"/>
</svg>
