<?xml version="1.0" encoding="utf-8"?>
<!-- Generator: Adobe Illustrator 21.0.0, SVG Export Plug-In . SVG Version: 6.00 Build 0)  -->
<svg version="1.1" id="Layer_1" xmlns="http://www.w3.org/2000/svg" xmlns:xlink="http://www.w3.org/1999/xlink" x="0px" y="0px"
	 viewBox="0 0 24 24" style="enable-background:new 0 0 24 24;" xml:space="preserve">
<path d="M18,2H6C4.9,2,4,2.9,4,4v17c0,0.6,0.5,1,1,1c0.2,0,0.5-0.1,0.7-0.3L12,15l6.3,6.7c0.2,0.2,0.5,0.3,0.7,0.3c0.5,0,1-0.4,1-1
	V4C20,2.9,19.1,2,18,2z M12.7,14.3C12.5,14.1,12.3,14,12,14s-0.5,0.1-0.7,0.3L5,21V4c0-0.6,0.4-1,1-1h12c0.6,0,1,0.4,1,1l0,17
	L12.7,14.3z"/>
</svg>
