<?xml version="1.0" encoding="utf-8"?>
<!-- Generator: Adobe Illustrator 21.0.0, SVG Export Plug-In . SVG Version: 6.00 Build 0)  -->
<svg version="1.1" id="Layer_1" xmlns="http://www.w3.org/2000/svg" xmlns:xlink="http://www.w3.org/1999/xlink" x="0px" y="0px"
	 viewBox="0 0 24 24" style="enable-background:new 0 0 24 24;" xml:space="preserve">
<style type="text/css">
	.st0{fill:#272727;}
</style>
<path class="st0" d="M20.7,8.6l-4.3-4.3C16.2,4.1,16,4,15.7,4c-0.5,0-1,0.4-1,1v1.6l-4,3h-0.6c-0.9,0-1.3,1.1-0.7,1.7l1.2,1.2
	L4.1,19v2h2l6.5-6.5l1.1,1.1c0.2,0.2,0.5,0.3,0.7,0.3c0.5,0,1-0.4,1-1v-0.6l3-4H20C20.9,10.3,21.3,9.2,20.7,8.6z M5.7,20H5.1v-0.6
	l6-6l0.6,0.6L5.7,20z M18.4,9.3c-0.3,0-0.6,0.1-0.8,0.4l-3,4c-0.1,0.2-0.2,0.4-0.2,0.6l0,0.6l-4.3-4.3h0.6c0.2,0,0.4-0.1,0.6-0.2
	l4-3c0.3-0.2,0.4-0.5,0.4-0.8l0-1.6c0,0,0,0,0,0v0L20,9.3H18.4z"/>
</svg>
