<?xml version="1.0" encoding="utf-8"?>
<!-- Generator: Adobe Illustrator 21.0.0, SVG Export Plug-In . SVG Version: 6.00 Build 0)  -->
<svg version="1.1" id="Layer_1" xmlns="http://www.w3.org/2000/svg" xmlns:xlink="http://www.w3.org/1999/xlink" x="0px" y="0px"
	 viewBox="0 0 24 24" style="enable-background:new 0 0 24 24;" xml:space="preserve">
<path d="M20,6H4C2.9,6,2,6.9,2,8v0v2v6c0,1.1,0.9,2,2,2h16c1.1,0,2-0.9,2-2v-6V8v0C22,6.9,21.1,6,20,6z M3,8c0-0.6,0.4-1,1-1h16
	c0.6,0,1,0.4,1,1v1.3L12,13L3,9.4V8z M21,16c0,0.6-0.4,1-1,1H4c-0.6,0-1-0.4-1-1v-5.6l8.6,3.5c0.1,0,0.2,0.1,0.4,0.1
	c0.1,0,0.3,0,0.4-0.1l8.6-3.5V16z"/>
</svg>
