<?xml version="1.0" encoding="utf-8"?>
<!-- Generator: Adobe Illustrator 21.0.0, SVG Export Plug-In . SVG Version: 6.00 Build 0)  -->
<svg version="1.1" id="Layer_1" xmlns="http://www.w3.org/2000/svg" xmlns:xlink="http://www.w3.org/1999/xlink" x="0px" y="0px"
	 viewBox="0 0 24 24" style="enable-background:new 0 0 24 24;" xml:space="preserve">
<g>
	<path d="M18.5,2h-13C4.7,2,4,2.7,4,3.5V18c0,1.5,1.2,2,2,2h1v2c0,0.2,0.1,0.4,0.3,0.5c0.1,0,0.1,0,0.2,0c0.1,0,0.3-0.1,0.4-0.2
		L9,21.1l1.2,1.2c0.1,0.1,0.4,0.2,0.5,0.1c0.2-0.1,0.3-0.3,0.3-0.5v-2h7.5c0.8,0,1.5-0.7,1.5-1.5v-3V13V3.5C20,2.7,19.3,2,18.5,2z
		 M5,3.5C5,3.2,5.2,3,5.5,3h13C18.8,3,19,3.2,19,3.5V13v2.5c0,0.3-0.2,0.5-0.5,0.5H6c-0.3,0-0.7,0.1-1,0.3V3.5z M10,20.8l-0.7-0.7
		C9.2,20,9.1,19.9,9,19.9c0,0,0,0,0,0c-0.1,0-0.3,0.1-0.4,0.2L8,20.7V19h2V20.8z M18.5,19H11v-0.5c0-0.3-0.2-0.5-0.5-0.5h-3
		C7.2,18,7,18.2,7,18.5V19H6c-0.2,0-1-0.1-1-1c0-1,1-1,1-1h12.5c0.2,0,0.3,0,0.5-0.1v1.6C19,18.8,18.8,19,18.5,19z"/>
	<path d="M9,10h6c0.6,0,1-0.4,1-1V7c0-0.6-0.4-1-1-1H9C8.4,6,8,6.4,8,7v2C8,9.6,8.4,10,9,10z M9,7h6v2H9V7z"/>
</g>
</svg>
