<?xml version="1.0" encoding="utf-8"?>
<!-- Generator: Adobe Illustrator 21.0.0, SVG Export Plug-In . SVG Version: 6.00 Build 0)  -->
<svg version="1.1" id="Layer_1" xmlns="http://www.w3.org/2000/svg" xmlns:xlink="http://www.w3.org/1999/xlink" x="0px" y="0px"
	 viewBox="0 0 24 24" style="enable-background:new 0 0 24 24;" xml:space="preserve">
<g>
	<path d="M20,7H10c0-0.6-0.4-1-1-1H6C5.4,6,5,6.4,5,7H4C2.9,7,2,7.9,2,9v8c0,1.1,0.9,2,2,2h16c1.1,0,2-0.9,2-2V9C22,7.9,21.1,7,20,7
		z M21,17c0,0.6-0.4,1-1,1H4c-0.6,0-1-0.4-1-1V9c0-0.6,0.4-1,1-1h2h3h11c0.6,0,1,0.4,1,1V17z"/>
	<path d="M9,10c-1.7,0-3,1.3-3,3s1.3,3,3,3s3-1.3,3-3S10.7,10,9,10z M9,15c-1.1,0-2-0.9-2-2c0-1.1,0.9-2,2-2s2,0.9,2,2
		C11,14.1,10.1,15,9,15z"/>
	<path d="M19,9h-3c-0.6,0-1,0.4-1,1v1c0,0.6,0.4,1,1,1h3c0.6,0,1-0.4,1-1v-1C20,9.4,19.6,9,19,9z M19,11h-3v-1h3V11z"/>
</g>
</svg>
