<?xml version="1.0" encoding="utf-8"?>
<!-- Generator: Adobe Illustrator 21.0.0, SVG Export Plug-In . SVG Version: 6.00 Build 0)  -->
<svg version="1.1" id="Layer_1" xmlns="http://www.w3.org/2000/svg" xmlns:xlink="http://www.w3.org/1999/xlink" x="0px" y="0px"
	 viewBox="0 0 24 24" style="enable-background:new 0 0 24 24;" xml:space="preserve">
<g>
	<path d="M12,2C6.5,2,2,6.5,2,12c0,5.5,4.5,10,10,10s10-4.5,10-10C22,6.5,17.5,2,12,2z M12,21c-5,0-9-4-9-9c0-5,4-9,9-9s9,4,9,9
		C21,17,17,21,12,21z"/>
	<path d="M17.1,6.2c-0.1,0-0.2,0-0.3,0L9.9,8.9c-0.5,0.2-0.9,0.6-1,1l-2.7,6.9c-0.2,0.5,0.2,1,0.7,1c0.1,0,0.2,0,0.3,0l6.9-2.7
		c0.5-0.2,0.9-0.6,1-1l2.7-6.9C18,6.6,17.6,6.2,17.1,6.2z M13.4,13.4C13,13.8,12.5,14,12,14c-0.5,0-1-0.2-1.4-0.6
		c-0.8-0.8-0.8-2,0-2.8C11,10.2,11.5,10,12,10s1,0.2,1.4,0.6C14.2,11.4,14.2,12.6,13.4,13.4z M9,12.3c0.1,0.7,0.3,1.3,0.8,1.8
		s1.1,0.8,1.8,0.8l-4.3,1.7L9,12.3z M15,11.7c-0.1-0.7-0.3-1.3-0.8-1.8C13.6,9.4,13,9.1,12.3,9l4.3-1.7L15,11.7z"/>
</g>
</svg>
