<?xml version="1.0" encoding="utf-8"?>
<!-- Generator: Adobe Illustrator 21.0.0, SVG Export Plug-In . SVG Version: 6.00 Build 0)  -->
<svg version="1.1" id="Layer_1" xmlns="http://www.w3.org/2000/svg" xmlns:xlink="http://www.w3.org/1999/xlink" x="0px" y="0px"
	 viewBox="0 0 24 24" style="enable-background:new 0 0 24 24;" xml:space="preserve">
<path d="M16,14c-0.2,0-0.3,0-0.5,0c-0.8,0.1-1.5,0.6-1.9,1.2l-3.1-1.5c0.3-0.5,0.5-1.1,0.5-1.7s-0.2-1.2-0.5-1.7l3.1-1.5
	c0.4,0.6,1.1,1,1.9,1.2c0.2,0,0.3,0,0.5,0c1.4,0,2.7-1,3-2.5c0.3-1.6-0.8-3.2-2.4-3.5c-0.2,0-0.3,0-0.5,0c-1.4,0-2.7,1-3,2.5
	C13,7,13,7.4,13.1,7.9L9.8,9.6l0,0.1C9.3,9.2,8.7,9,8,9c-1.7,0-3,1.3-3,3s1.3,3,3,3c0.7,0,1.3-0.2,1.8-0.6l0,0.1l3.4,1.7
	C13,16.6,13,17,13,17.5c0.3,1.5,1.5,2.5,3,2.5c0.2,0,0.3,0,0.5,0c1.6-0.3,2.7-1.8,2.4-3.5C18.7,15,17.4,14,16,14z M14,6.7
	c0.2-1,1-1.7,2-1.7c0.1,0,0.2,0,0.3,0c1.1,0.2,1.8,1.2,1.6,2.3c-0.2,1-1,1.7-2,1.7c-0.1,0-0.2,0-0.3,0C14.6,8.8,13.8,7.7,14,6.7z
	 M8,14c-1.1,0-2-0.9-2-2c0-1.1,0.9-2,2-2s2,0.9,2,2C10,13.1,9.1,14,8,14z M16.3,19c-0.1,0-0.2,0-0.3,0c-1,0-1.8-0.7-2-1.7
	c-0.2-1.1,0.5-2.1,1.6-2.3c0.1,0,0.2,0,0.3,0c1,0,1.8,0.7,2,1.7C18.2,17.7,17.4,18.8,16.3,19z"/>
</svg>
