<?xml version="1.0" encoding="utf-8"?>
<!-- Generator: Adobe Illustrator 21.0.0, SVG Export Plug-In . SVG Version: 6.00 Build 0)  -->
<svg version="1.1" id="Layer_1" xmlns="http://www.w3.org/2000/svg" xmlns:xlink="http://www.w3.org/1999/xlink" x="0px" y="0px"
	 viewBox="0 0 24 24" style="enable-background:new 0 0 24 24;" xml:space="preserve">
<g>
	<path d="M12,2C6.5,2,2,6.5,2,12c0,5.5,4.5,10,10,10s10-4.5,10-10C22,6.5,17.5,2,12,2z M12,21c-5,0-9-4-9-9c0-5,4-9,9-9s9,4,9,9
		C21,17,17,21,12,21z"/>
	<path d="M17,12h-5V5c0-0.3-0.2-0.5-0.5-0.5S11,4.7,11,5v7.5c0,0.3,0.2,0.5,0.5,0.5H17c0.3,0,0.5-0.2,0.5-0.5S17.3,12,17,12z"/>
</g>
</svg>
