<?xml version="1.0" encoding="utf-8"?>
<!-- Generator: Adobe Illustrator 21.0.0, SVG Export Plug-In . SVG Version: 6.00 Build 0)  -->
<svg version="1.1" id="Layer_1" xmlns="http://www.w3.org/2000/svg" xmlns:xlink="http://www.w3.org/1999/xlink" x="0px" y="0px"
	 viewBox="0 0 24 24" style="enable-background:new 0 0 24 24;" xml:space="preserve">
<path d="M20.5,18.8C19.8,18,19,17,19,16V9c0-3.4-2.5-7-7-7C7.5,2,5,5.6,5,9v7c0,1-0.8,2-1.5,2.8C3,19.2,3.3,20,4,20h5.2
	c0.3,0.9,1,2,2.8,2s2.5-1.1,2.8-2H20C20.7,20,21,19.2,20.5,18.8z M12,21c-1,0-1.5-0.5-1.8-1h3.6C13.5,20.5,13,21,12,21z M15,19H9
	H4.6C5.5,18,6,17,6,16V9c0-2.9,2.2-6,6-6c3.9,0,6,3.1,6,6v7c0,1,0.5,2,1.3,3H15z"/>
</svg>
