<?xml version="1.0" encoding="utf-8"?>
<!-- Generator: Adobe Illustrator 21.0.0, SVG Export Plug-In . SVG Version: 6.00 Build 0)  -->
<svg version="1.1" id="Layer_1" xmlns="http://www.w3.org/2000/svg" xmlns:xlink="http://www.w3.org/1999/xlink" x="0px" y="0px"
	 viewBox="0 0 24 24" style="enable-background:new 0 0 24 24;" xml:space="preserve">
<g>
	<path d="M20,4H4C2.9,4,2,4.9,2,6v14l3-3h15c1.1,0,2-0.9,2-2V6C22,4.9,21.1,4,20,4z M21,15c0,0.6-0.4,1-1,1H5
		c-0.3,0-0.5,0.1-0.7,0.3L3,17.6V6c0-0.6,0.4-1,1-1h16c0.6,0,1,0.4,1,1V15z"/>
	<path d="M18,7H6C5.7,7,5.5,7.2,5.5,7.5S5.7,8,6,8h12c0.3,0,0.5-0.2,0.5-0.5S18.3,7,18,7z"/>
	<path d="M18,10H6c-0.3,0-0.5,0.2-0.5,0.5S5.7,11,6,11h12c0.3,0,0.5-0.2,0.5-0.5S18.3,10,18,10z"/>
	<path d="M14,13H6c-0.3,0-0.5,0.2-0.5,0.5S5.7,14,6,14h8c0.3,0,0.5-0.2,0.5-0.5S14.3,13,14,13z"/>
</g>
</svg>
