<?xml version="1.0" encoding="utf-8"?>
<!-- Generator: Adobe Illustrator 21.0.0, SVG Export Plug-In . SVG Version: 6.00 Build 0)  -->
<svg version="1.1" id="Layer_1" xmlns="http://www.w3.org/2000/svg" xmlns:xlink="http://www.w3.org/1999/xlink" x="0px" y="0px"
	 viewBox="0 0 24 24" style="enable-background:new 0 0 24 24;" xml:space="preserve">
<g>
	<path d="M12,6c-2.2,0-4,1.8-4,4c0,2.2,1.8,4,4,4s4-1.8,4-4C16,7.8,14.2,6,12,6z M12,13c-1.7,0-3-1.3-3-3c0-1.7,1.3-3,3-3s3,1.3,3,3
		C15,11.7,13.7,13,12,13z"/>
	<path d="M12,2c-4,0-8,3-8,8c0,6,8,12,8,12s8-6,8-12C20,5,16,2,12,2z M12,20.7c-1.8-1.5-7-6.2-7-10.7c0-4.5,3.6-7,7-7s7,2.5,7,7
		C19,14.5,13.8,19.2,12,20.7z"/>
</g>
</svg>
