<?xml version="1.0" encoding="utf-8"?>
<!-- Generator: Adobe Illustrator 21.0.0, SVG Export Plug-In . SVG Version: 6.00 Build 0)  -->
<svg version="1.1" id="Layer_1" xmlns="http://www.w3.org/2000/svg" xmlns:xlink="http://www.w3.org/1999/xlink" x="0px" y="0px"
	 viewBox="0 0 24 24" style="enable-background:new 0 0 24 24;" xml:space="preserve">
<g>
	<path d="M20.4,11.6l-8-8C12.1,3.2,11.5,3,11,3H5C3.9,3,3,3.9,3,5v6c0,0.5,0.2,1,0.6,1.4l8,8C12,20.8,12.5,21,13,21s1-0.2,1.4-0.6
		l6-6C21.2,13.6,21.2,12.4,20.4,11.6z M19.7,13.7l-6,6C13.5,19.9,13.3,20,13,20s-0.5-0.1-0.7-0.3l-8-8C4.1,11.5,4,11.3,4,11V5
		c0-0.6,0.4-1,1-1h6c0.3,0,0.5,0.1,0.7,0.3l8,8c0.2,0.2,0.3,0.4,0.3,0.7C20,13.3,19.9,13.5,19.7,13.7z"/>
	<path d="M7,5C5.9,5,5,5.9,5,7c0,1.1,0.9,2,2,2s2-0.9,2-2C9,5.9,8.1,5,7,5z M7,8C6.4,8,6,7.6,6,7s0.4-1,1-1s1,0.4,1,1S7.6,8,7,8z"/>
</g>
</svg>
