<?xml version="1.0" encoding="utf-8"?>
<!-- Generator: Adobe Illustrator 21.0.0, SVG Export Plug-In . SVG Version: 6.00 Build 0)  -->
<svg version="1.1" id="Layer_1" xmlns="http://www.w3.org/2000/svg" xmlns:xlink="http://www.w3.org/1999/xlink" x="0px" y="0px"
	 viewBox="0 0 24 24" style="enable-background:new 0 0 24 24;" xml:space="preserve">
<path d="M20.9,20.1l-4.4-4.4C18,14.3,19,12.3,19,10c0-4.4-3.6-8-8-8s-8,3.6-8,8c0,4.4,3.6,8,8,8c1.8,0,3.4-0.6,4.7-1.6l4.4,4.4
	c0.1,0.1,0.4,0.3,0.7,0C21,20.7,21,20.3,20.9,20.1z M4,10c0-3.9,3.1-7,7-7s7,3.1,7,7s-3.1,7-7,7S4,13.9,4,10z"/>
</svg>
