<?xml version="1.0" encoding="utf-8"?>
<!-- Generator: Adobe Illustrator 21.0.0, SVG Export Plug-In . SVG Version: 6.00 Build 0)  -->
<svg version="1.1" id="Layer_1" xmlns="http://www.w3.org/2000/svg" xmlns:xlink="http://www.w3.org/1999/xlink" x="0px" y="0px"
	 viewBox="0 0 24 24" style="enable-background:new 0 0 24 24;" xml:space="preserve">
<path d="M20,2H4C2.9,2,2,2.9,2,4v16c0,1.1,0.9,2,2,2h16c1.1,0,2-0.9,2-2V4C22,2.9,21.1,2,20,2z M4,3h16c0.6,0,1,0.4,1,1v9.3
	l-3.6-3.6c-0.2-0.2-0.5-0.2-0.7,0L11,15.3l-2.6-2.6c-0.2-0.2-0.5-0.2-0.7,0L3,17.3V4C3,3.4,3.4,3,4,3z M3,20v-1.2l5-5.1l7.3,7.3H4
	C3.4,21,3,20.6,3,20z M21,20c0,0.6-0.4,1-1,1h-3.2l-5.1-5l5.3-5.3l4,4V20z"/>
</svg>
