<?xml version="1.0" encoding="utf-8"?>
<!-- Generator: Adobe Illustrator 21.0.0, SVG Export Plug-In . SVG Version: 6.00 Build 0)  -->
<svg version="1.1" id="Layer_1" xmlns="http://www.w3.org/2000/svg" xmlns:xlink="http://www.w3.org/1999/xlink" x="0px" y="0px"
	 viewBox="0 0 24 24" style="enable-background:new 0 0 24 24;" xml:space="preserve">
<g>
	<path d="M17,17c1.1,0,2,0.9,2,2v1c0,0.6-0.4,1-1,1H6c-0.6,0-1-0.4-1-1v-1c0-1.1,0.9-2,2-2H17 M17,16H7c-1.7,0-3,1.3-3,3v1
		c0,1.1,0.9,2,2,2h12c1.1,0,2-0.9,2-2v-1C20,17.3,18.7,16,17,16L17,16z"/>
</g>
<g>
	<path d="M12,3c2.8,0,5,2.2,5,5s-2.2,5-5,5s-5-2.2-5-5S9.2,3,12,3 M12,2C8.7,2,6,4.7,6,8s2.7,6,6,6s6-2.7,6-6S15.3,2,12,2L12,2z"/>
</g>
</svg>
