<svg xmlns="http://www.w3.org/2000/svg" xmlns:xlink="http://www.w3.org/1999/xlink" viewBox="-1687 -3733 373.4 97.5">
  <defs>
    <style>
      .cls-1 {
        fill: url(#linear-gradient);
      }

      .cls-2 {
        fill: url(#linear-gradient-2);
      }

      .cls-3 {
        fill: url(#linear-gradient-3);
      }

      .cls-4 {
        fill: url(#linear-gradient-4);
      }

      .cls-5 {
        fill: #512f01;
      }
    </style>
    <linearGradient id="linear-gradient" x1="-1.729" y1="0.217" x2="3.396" y2="-1.979" gradientUnits="objectBoundingBox">
      <stop offset="0" stop-color="#fec677"/>
      <stop offset="1" stop-color="#fd91a0"/>
    </linearGradient>
    <linearGradient id="linear-gradient-2" x1="-0.411" y1="0.824" x2="0.87" y2="-1.372" xlink:href="#linear-gradient"/>
    <linearGradient id="linear-gradient-3" x1="-0.128" y1="3.542" x2="1.153" y2="-0.302" xlink:href="#linear-gradient"/>
    <linearGradient id="linear-gradient-4" x1="0.135" y1="2.234" x2="1.096" y2="0.312" xlink:href="#linear-gradient"/>
  </defs>
  <g id="logo" transform="translate(-1690.3 -3736.2)">
    <path id="Path_302" data-name="Path 302" class="cls-1" d="M16,58H4V94a6.018,6.018,0,0,0,6,6H22V64A6.018,6.018,0,0,0,16,58Z"/>
    <g id="Group_2864" data-name="Group 2864">
      <path id="Path_303" data-name="Path 303" class="cls-2" d="M27.3,64v36h66a6.018,6.018,0,0,0,6-6V58h-66A6.018,6.018,0,0,0,27.3,64Z"/>
      <path id="Path_304" data-name="Path 304" class="cls-3" d="M27.3,34V46a6.018,6.018,0,0,0,6,6h66V28h-66A6.018,6.018,0,0,0,27.3,34Z"/>
      <path id="Path_305" data-name="Path 305" class="cls-4" d="M93.3,4H9.3a6.018,6.018,0,0,0-6,6V52h12a6.018,6.018,0,0,0,6-6V28a6.018,6.018,0,0,1,6-6h72V10A6.018,6.018,0,0,0,93.3,4Z"/>
    </g>
    <g id="Group_2865" data-name="Group 2865">
      <path id="Path_306" data-name="Path 306" class="cls-5" d="M132.4,4h26.5v7.4H140.2v9.5h18.3v7.4H140.2v17h-7.8Z"/>
      <path id="Path_307" data-name="Path 307" class="cls-5" d="M167.6,4h27.7v7.4h-10V37.9h9.9v7.4H167.5V37.9h9.9V11.5h-9.9V4Z"/>
      <path id="Path_308" data-name="Path 308" class="cls-5" d="M217.7,39.1a8.15,8.15,0,0,0,3.7-.7,5.776,5.776,0,0,0,2.2-1.8,8.084,8.084,0,0,0,1.1-2.7,15.526,15.526,0,0,0,.3-3.1V29.7h7.8v1.1q0,7.35-3.9,11.4c-2.6,2.7-6.3,4-11.3,4-4.7,0-8.5-1.4-11.2-4.3-2.8-2.9-4.1-7.1-4.1-12.6V20.1a22.5,22.5,0,0,1,1.1-7.1,13.29,13.29,0,0,1,3.1-5.3,14.688,14.688,0,0,1,4.8-3.3,16.229,16.229,0,0,1,6.4-1.2,18.837,18.837,0,0,1,6.5,1.1A12.082,12.082,0,0,1,229,7.4a13.719,13.719,0,0,1,2.9,4.8,20.957,20.957,0,0,1,1,6.4v1.1h-7.8V18.6a10.323,10.323,0,0,0-.4-3,6.6,6.6,0,0,0-1.2-2.7,6.736,6.736,0,0,0-2.2-1.9,7.281,7.281,0,0,0-3.5-.7,7.391,7.391,0,0,0-3.4.7,9.141,9.141,0,0,0-2.4,2,8.343,8.343,0,0,0-1.4,3,13.425,13.425,0,0,0-.4,3.5V29.9a14.482,14.482,0,0,0,.4,3.7,8.555,8.555,0,0,0,1.3,2.9,6.033,6.033,0,0,0,2.3,1.9A7.28,7.28,0,0,0,217.7,39.1Z"/>
      <path id="Path_309" data-name="Path 309" class="cls-5" d="M238.8,4h29.8v7.4h-11V45.3h-7.8V11.5h-11V4Z"/>
      <path id="Path_310" data-name="Path 310" class="cls-5" d="M274.6,20.1c0-5.4,1.3-9.5,4-12.5s6.4-4.4,11.2-4.4,8.5,1.5,11.2,4.4c2.7,3,4,7.1,4,12.5v9.2c0,5.5-1.4,9.7-4,12.6-2.7,2.9-6.4,4.3-11.2,4.3s-8.5-1.4-11.2-4.3-4-7.1-4-12.6Zm15.3,19a7.281,7.281,0,0,0,3.5-.7,7.1,7.1,0,0,0,2.3-1.9,6.773,6.773,0,0,0,1.2-3,21.111,21.111,0,0,0,.4-3.8V19.6a15,15,0,0,0-.4-3.7,10.108,10.108,0,0,0-1.3-3,7.4,7.4,0,0,0-2.3-2,8.607,8.607,0,0,0-6.8,0,7.4,7.4,0,0,0-2.3,2,8.26,8.26,0,0,0-1.3,3,14.482,14.482,0,0,0-.4,3.7V29.8a15.286,15.286,0,0,0,.4,3.8,7.892,7.892,0,0,0,1.2,3,5.251,5.251,0,0,0,2.3,1.9A8.8,8.8,0,0,0,289.9,39.1Z"/>
      <path id="Path_311" data-name="Path 311" class="cls-5" d="M333.1,36.5H319l-2,8.9h-8.2L318.7,4h14.7l9.9,41.4h-8.2Zm-12.4-7.4h10.7L326.6,7.9h-1.1Z"/>
      <path id="Path_312" data-name="Path 312" class="cls-5" d="M367.8,41.5h1.1V4h7.8V45.4H361.5L356.7,8h-1.1V45.5h-7.8V4H363Z"/>
      <path id="Path_313" data-name="Path 313" class="cls-5" d="M131.5,68.1h19.6v3.6H135.3V82.3h15.5v3.6H135.3v14.2h-3.8Z"/>
      <path id="Path_314" data-name="Path 314" class="cls-5" d="M157.7,77.4h8.2v3h.5a6.221,6.221,0,0,1,2.5-2.8,7.4,7.4,0,0,1,3.6-.9,7.089,7.089,0,0,1,5.5,2.2c1.4,1.5,2.1,3.7,2.2,6.5l-3.7.5q0-3.15-1.5-4.5a5.308,5.308,0,0,0-3.7-1.4,5.684,5.684,0,0,0-2.4.5,4.978,4.978,0,0,0-1.7,1.5,5.535,5.535,0,0,0-1,2.2,12.413,12.413,0,0,0-.3,2.7v9.6h5.7v3.3H157.1V96.5h5.2v-16h-4.6Z"/>
      <path id="Path_315" data-name="Path 315" class="cls-5" d="M203.3,96.2h-.5a7.674,7.674,0,0,1-3,3.4,8.388,8.388,0,0,1-4.1,1.1,10.7,10.7,0,0,1-4.1-.8,9.111,9.111,0,0,1-3.3-2.2,11.111,11.111,0,0,1-2.3-3.6,14.975,14.975,0,0,1-.8-5v-.7a14.367,14.367,0,0,1,.8-4.9,9.672,9.672,0,0,1,2.3-3.6,12.269,12.269,0,0,1,3.3-2.3,11.09,11.09,0,0,1,4.1-.8,8.416,8.416,0,0,1,4.2,1,6.691,6.691,0,0,1,3,3.2h.5V77.4H207V95.3c0,.9.4,1.4,1.2,1.4h1.1V100h-2.4a3.174,3.174,0,0,1-2.5-1,3.392,3.392,0,0,1-1-2.6v-.2h-.1ZM196,97.3a6.839,6.839,0,0,0,2.9-.6,6.576,6.576,0,0,0,2.3-1.7,9.339,9.339,0,0,0,1.5-2.6,9.018,9.018,0,0,0,.5-3.4v-.5a11.418,11.418,0,0,0-.5-3.3,9.339,9.339,0,0,0-1.5-2.6,7.638,7.638,0,0,0-2.3-1.7,7.173,7.173,0,0,0-2.9-.6,6.839,6.839,0,0,0-2.9.6,6.269,6.269,0,0,0-2.3,1.7,6.142,6.142,0,0,0-1.5,2.6,11.418,11.418,0,0,0-.5,3.3v.6a8.513,8.513,0,0,0,2,6A6.454,6.454,0,0,0,196,97.3Z"/>
      <path id="Path_316" data-name="Path 316" class="cls-5" d="M236.5,100h-3.6V83.8a4.209,4.209,0,0,0-.7-2.6,2.644,2.644,0,0,0-2.3-1,3.043,3.043,0,0,0-2.4,1.1,5.315,5.315,0,0,0-.9,3.4V100H223V83.6a4.147,4.147,0,0,0-.8-2.5,2.574,2.574,0,0,0-2.2-1,2.908,2.908,0,0,0-2.5,1.2,4.964,4.964,0,0,0-.9,3.1V100H213V77.4h3.6v2.5h.5a4.645,4.645,0,0,1,1.7-2.3,5.029,5.029,0,0,1,2.7-.8,4,4,0,0,1,2.7.9,4.825,4.825,0,0,1,1.5,2.2h.5a5.09,5.09,0,0,1,4.9-3.1,4.717,4.717,0,0,1,3.9,1.6,6.443,6.443,0,0,1,1.4,4.2V100Z"/>
      <path id="Path_317" data-name="Path 317" class="cls-5" d="M245.2,89.8a8,8,0,0,0,2.1,5.4,7.035,7.035,0,0,0,5.5,2,7.885,7.885,0,0,0,2.8-.4,5.364,5.364,0,0,0,2-1,5.017,5.017,0,0,0,1.4-1.5,14.166,14.166,0,0,0,.8-1.8l3.4.9a9.635,9.635,0,0,1-3.5,5.1,11.1,11.1,0,0,1-6.9,2,12.307,12.307,0,0,1-4.4-.8,10.423,10.423,0,0,1-3.5-2.4,11.582,11.582,0,0,1-2.3-3.7,14.034,14.034,0,0,1-.8-4.7V87.8a12.307,12.307,0,0,1,.8-4.4,10.654,10.654,0,0,1,2.3-3.5,10.144,10.144,0,0,1,3.5-2.3,10.763,10.763,0,0,1,4.4-.8,10.029,10.029,0,0,1,4.8,1,9.585,9.585,0,0,1,3.3,2.5,10.91,10.91,0,0,1,1.9,3.3,10.512,10.512,0,0,1,.6,3.3v2.9Zm7.6-9.6a8.676,8.676,0,0,0-2.8.5,8.585,8.585,0,0,0-2.3,1.3,7.418,7.418,0,0,0-1.6,2,6.684,6.684,0,0,0-.8,2.5h14.6a6.619,6.619,0,0,0-.7-2.6,5.264,5.264,0,0,0-1.6-2,9.8,9.8,0,0,0-2.2-1.3A7.834,7.834,0,0,0,252.8,80.2Z"/>
      <path id="Path_318" data-name="Path 318" class="cls-5" d="M290,100h-6.6l-2.7-21h-.5l-2.7,21h-6.6l-3.6-22.6h3.6l3,21h.5l2.6-21h6.6l2.6,21h.5l3-21h3.6Z"/>
      <path id="Path_319" data-name="Path 319" class="cls-5" d="M319.7,89a13.109,13.109,0,0,1-.9,5,9.328,9.328,0,0,1-2.5,3.6,11.111,11.111,0,0,1-3.6,2.3,12.6,12.6,0,0,1-4.3.8,12.169,12.169,0,0,1-4.3-.8,9.673,9.673,0,0,1-3.6-2.3A11.6,11.6,0,0,1,298,94a12.756,12.756,0,0,1-.9-5v-.5a12.246,12.246,0,0,1,.9-4.9,12.068,12.068,0,0,1,2.5-3.7,10.546,10.546,0,0,1,3.6-2.3,11.956,11.956,0,0,1,8.6,0,9.673,9.673,0,0,1,3.6,2.3,10.976,10.976,0,0,1,2.5,3.7,12.592,12.592,0,0,1,.9,4.9Zm-11.3,8.3a7.306,7.306,0,0,0,3-.6,6.6,6.6,0,0,0,2.4-1.7,7.6,7.6,0,0,0,1.6-2.6A9.342,9.342,0,0,0,316,89v-.5a8.809,8.809,0,0,0-.6-3.3,7.6,7.6,0,0,0-1.6-2.6,7.386,7.386,0,0,0-2.5-1.7,7.8,7.8,0,0,0-6,0,8.518,8.518,0,0,0-2.5,1.7,7.6,7.6,0,0,0-1.6,2.6,8.809,8.809,0,0,0-.6,3.3V89a8.971,8.971,0,0,0,.6,3.4,7.6,7.6,0,0,0,1.6,2.6,8.068,8.068,0,0,0,2.4,1.7A8.662,8.662,0,0,0,308.4,97.3Z"/>
      <path id="Path_320" data-name="Path 320" class="cls-5" d="M325,77.4h8.2v3h.5a6.221,6.221,0,0,1,2.5-2.8,7.4,7.4,0,0,1,3.6-.9,7.089,7.089,0,0,1,5.5,2.2c1.4,1.5,2.1,3.7,2.2,6.5l-3.7.5q0-3.15-1.5-4.5a5.308,5.308,0,0,0-3.7-1.4,5.684,5.684,0,0,0-2.4.5,4.978,4.978,0,0,0-1.7,1.5,5.535,5.535,0,0,0-1,2.2,12.412,12.412,0,0,0-.3,2.7v9.6h5.7v3.3H324.4V96.5h5.2v-16H325V77.4Z"/>
      <path id="Path_321" data-name="Path 321" class="cls-5" d="M360,86.8h.8l8.6-9.4h4.4v.3L364.3,88v.8l10.5,10.9v.3h-4.4l-9.6-9.9h-.9V100h-3.6V68.1h3.6l.1,18.7Z"/>
    </g>
  </g>
</svg>
