<svg version="1.1" xmlns="http://www.w3.org/2000/svg" x="0px" y="0px"
     viewBox="0 0 120 40" enable-background="new 0 0 120 40" xml:space="preserve">
<g>
    <path fill="#FEC753" d="M40.1,19.1V10h5.5v1.5h-3.9v2.5h3.7v1.5h-3.7v3.7H40.1z"/>
    <path fill="#FEC753" d="M47.2,19.1v-1.4h1.3v-6.3h-1.3V10h4.2v1.4h-1.3v6.3h1.3v1.4H47.2z"/>
    <path fill="#FEC753" d="M57.6,19.3c-1.4,0-2.5-0.5-3.4-1.4c-0.9-0.9-1.3-2-1.3-3.4c0-1.3,0.4-2.5,1.3-3.4s2-1.4,3.4-1.4
        c1,0,1.9,0.3,2.7,0.9c0.8,0.6,1.3,1.4,1.6,2.3h-1.7c-0.2-0.5-0.6-0.9-1-1.2c-0.5-0.3-1-0.5-1.6-0.5c-0.9,0-1.6,0.3-2.2,0.9
        c-0.6,0.6-0.8,1.4-0.8,2.3c0,0.9,0.3,1.7,0.8,2.3s1.3,0.9,2.2,0.9c0.6,0,1.1-0.2,1.6-0.5s0.8-0.7,1.1-1.2H62
        c-0.3,1-0.8,1.8-1.6,2.4C59.6,19,58.7,19.3,57.6,19.3z"/>
    <path fill="#FEC753" d="M64.9,19.1v-7.7h-2.5V10h6.6v1.5h-2.5v7.7H64.9z"/>
    <path fill="#FEC753" d="M78.1,17.9c-0.9,0.9-2,1.4-3.4,1.4c-1.3,0-2.5-0.5-3.4-1.4s-1.4-2-1.4-3.4c0-1.3,0.5-2.5,1.4-3.4
        c0.9-0.9,2-1.4,3.4-1.4s2.5,0.5,3.4,1.4c0.9,0.9,1.4,2,1.4,3.4C79.5,15.9,79,17,78.1,17.9z M74.8,17.8c0.9,0,1.6-0.3,2.2-0.9
        c0.6-0.6,0.9-1.4,0.9-2.3c0-0.9-0.3-1.7-0.9-2.3c-0.6-0.6-1.3-0.9-2.2-0.9c-0.9,0-1.6,0.3-2.2,0.9c-0.6,0.6-0.9,1.4-0.9,2.3
        c0,0.9,0.3,1.7,0.9,2.3C73.1,17.5,73.9,17.8,74.8,17.8z"/>
    <path fill="#FEC753" d="M86.9,19.1l-0.7-2h-4l-0.7,2H80l3.2-9.1h2.2l3.2,9.1H86.9z M82.7,15.7h3l-1.4-4.2h-0.1L82.7,15.7z"/>
    <path fill="#FEC753" d="M89.8,19.1V10h2.7l3,7.6h0.1V10h1.6v9.1h-2.7l-2.9-7.6h-0.1v7.6H89.8z"/>
    <path fill="#FEC753" d="M40.1,30v-9.1h5.5v1.5h-3.9v2.5h3.7v1.5h-3.7V30H40.1z"/>
    <path fill="#FEC753" d="M47.1,30v-6.8h1.5v1h0.1c0.1-0.3,0.4-0.6,0.7-0.8c0.3-0.2,0.7-0.4,1.1-0.4H51v1.5h-0.7
        c-0.6,0-1,0.2-1.3,0.6c-0.3,0.4-0.4,0.9-0.4,1.5V30H47.1z"/>
    <path fill="#FEC753" d="M54.9,30.2c-0.9,0-1.7-0.3-2.3-1c-0.6-0.7-0.9-1.5-0.9-2.6c0-1,0.3-1.9,0.9-2.6c0.6-0.7,1.4-1,2.3-1
        c0.9,0,1.6,0.3,2.1,1h0.1v-0.8h1.5v5.2c0,0.2,0.1,0.3,0.3,0.3h0.3V30h-1.2c-0.3,0-0.5-0.1-0.7-0.2c-0.2-0.2-0.3-0.4-0.3-0.6H57
        C56.6,29.8,55.9,30.2,54.9,30.2z M55.2,28.7c0.6,0,1-0.2,1.4-0.6s0.5-0.9,0.5-1.5c0-0.7-0.2-1.2-0.5-1.6c-0.4-0.4-0.8-0.6-1.4-0.6
        c-0.6,0-1,0.2-1.4,0.6c-0.4,0.4-0.5,0.9-0.5,1.5c0,0.6,0.2,1.1,0.5,1.5C54.2,28.5,54.7,28.7,55.2,28.7z"/>
    <path fill="#FEC753" d="M60.7,30v-6.8h1.5v0.8h0.1c0.4-0.6,0.9-0.9,1.7-0.9c0.9,0,1.5,0.4,1.9,1.1h0.1c0.4-0.7,1.1-1.1,2-1.1
        c0.7,0,1.3,0.2,1.8,0.7c0.5,0.5,0.7,1.1,0.7,1.8V30h-1.6v-4c0-0.5-0.1-0.9-0.3-1.1s-0.5-0.4-0.9-0.4c-0.4,0-0.7,0.1-1,0.4
        c-0.3,0.3-0.4,0.6-0.4,1.1v4h-1.5v-4.2c0-0.4-0.1-0.7-0.4-1s-0.6-0.4-0.9-0.4c-0.4,0-0.7,0.1-1,0.4s-0.4,0.6-0.4,1.1V30H60.7z"/>
    <path fill="#FEC753" d="M75.5,30.2c-1,0-1.9-0.3-2.5-1c-0.6-0.7-1-1.5-1-2.6c0-1.1,0.3-1.9,1-2.6c0.7-0.7,1.5-1,2.4-1
        c1,0,1.8,0.3,2.4,1s0.9,1.5,0.9,2.6V27h-5.2c0,0.6,0.2,1,0.5,1.4s0.8,0.5,1.4,0.5c0.4,0,0.7-0.1,1.1-0.3c0.3-0.2,0.5-0.5,0.7-0.8
        l1.4,0.3c-0.2,0.7-0.6,1.2-1.2,1.6C76.9,30,76.2,30.2,75.5,30.2z M73.6,25.8h3.6c0-0.5-0.2-0.8-0.6-1.1c-0.3-0.3-0.7-0.4-1.2-0.4
        s-0.9,0.1-1.2,0.4S73.7,25.4,73.6,25.8z"/>
    <path fill="#FEC753" d="M81,30l-1.8-6.8h1.6l1.2,5.4h0.1l1.3-5.4h2.1l1.2,5.4h0.1l1.2-5.4h1.6L87.9,30h-2.2l-1.2-5.4h-0.1L83.2,30
        H81z"/>
    <path fill="#FEC753" d="M96.4,29.1c-0.7,0.7-1.5,1-2.6,1s-1.9-0.3-2.6-1c-0.7-0.7-1-1.5-1-2.6c0-1,0.3-1.9,1-2.6s1.5-1,2.6-1
        s1.9,0.3,2.6,1s1,1.5,1,2.6C97.4,27.6,97.1,28.4,96.4,29.1z M93.8,28.7c0.6,0,1.1-0.2,1.5-0.6c0.4-0.4,0.6-0.9,0.6-1.5
        c0-0.6-0.2-1.1-0.6-1.5c-0.4-0.4-0.9-0.6-1.5-0.6c-0.6,0-1.1,0.2-1.5,0.6c-0.4,0.4-0.6,0.9-0.6,1.5c0,0.6,0.2,1.1,0.6,1.5
        C92.7,28.5,93.2,28.7,93.8,28.7z"/>
    <path fill="#FEC753" d="M98.9,30v-6.8h1.5v1h0.1c0.1-0.3,0.4-0.6,0.7-0.8c0.3-0.2,0.7-0.4,1.1-0.4h0.5v1.5h-0.7
        c-0.6,0-1,0.2-1.3,0.6c-0.3,0.4-0.4,0.9-0.4,1.5V30H98.9z"/>
    <path fill="#FEC753" d="M104.3,30v-9.8h1.5v5.4h0.8l1.7-2.4h1.8l-2.2,3v0.1l2.3,3.7h-1.8l-1.8-3h-0.8v3H104.3z"/>
</g>
<g>
    <path fill="#292929" d="M29,32H11c-1.7,0-3-1.3-3-3V11c0-1.7,1.3-3,3-3h18c1.7,0,3,1.3,3,3v18C32,30.7,30.7,32,29,32z"/>
    <g>
        <g>
            <line fill="#FEC753" x1="13.2" y1="14" x2="26.8" y2="14"/>
            <path fill="#FEC753" d="M27.5,15.5h-15c-0.4,0-0.8-0.3-0.8-0.8v-1.5c0-0.4,0.3-0.8,0.8-0.8h15c0.4,0,0.8,0.3,0.8,0.8v1.5
                C28.2,15.2,27.9,15.5,27.5,15.5z"/>
        </g>
        <g>
            <line fill="#FEC753" x1="13.2" y1="20" x2="22.2" y2="20"/>
            <path fill="#FEC753" d="M23,21.5H12.5c-0.4,0-0.8-0.3-0.8-0.8v-1.5c0-0.4,0.3-0.8,0.8-0.8H23c0.4,0,0.8,0.3,0.8,0.8v1.5
                C23.8,21.2,23.4,21.5,23,21.5z"/>
        </g>
        <g>
            <line fill="#FEC753" x1="13.2" y1="26" x2="17.8" y2="26"/>
            <path fill="#FEC753" d="M18.5,27.5h-6c-0.4,0-0.8-0.3-0.8-0.8v-1.5c0-0.4,0.3-0.8,0.8-0.8h6c0.4,0,0.8,0.3,0.8,0.8v1.5
                C19.2,27.2,18.9,27.5,18.5,27.5z"/>
        </g>
    </g>
</g>
</svg>
