<?xml version="1.0" encoding="utf-8"?>
<!-- Generator: Adobe Illustrator 22.1.0, SVG Export Plug-In . SVG Version: 6.00 Build 0)  -->
<svg version="1.1" id="Layer_1" xmlns="http://www.w3.org/2000/svg" xmlns:xlink="http://www.w3.org/1999/xlink" x="0px" y="0px"
	 viewBox="0 0 240 80" style="enable-background:new 0 0 240 80;" xml:space="preserve">
<style type="text/css">
	.st0{fill:#FFFFFF;}
</style>
<g>
	<polygon class="st0" points="40.5,52 44.5,52 44.5,42 58.5,42 58.5,38 44.5,38 44.5,32 58.5,32 58.5,28 40.5,28 	"/>
	<polygon class="st0" points="62.5,32 68.5,32 68.5,48 62.5,48 62.5,52 68.5,52 72.5,52 78.5,52 78.5,48 72.5,48 72.5,32 78.5,32 
		78.5,28 62.5,28 	"/>
	<polygon class="st0" points="106.5,32 112.4,32 112.4,52 116.4,52 116.4,32 122.4,32 122.4,28 106.5,28 	"/>
	<path class="st0" d="M136.4,28L136.4,28c-6.6,0-12,5.4-12,12s5.4,12,12,12c6.6,0,12-5.4,12-12S143,28,136.4,28z M136.4,48
		c-4.4,0-8-3.6-8-8s3.6-8,8-8s8,3.6,8,8S140.8,48,136.4,48z"/>
	<path class="st0" d="M94.5,32c2.5,0,4.9,1.2,6.4,3.2l3.2-2.4c-2.3-3-5.9-4.8-9.6-4.8c-6.6,0-12,5.4-12,12s5.4,12,12,12
		c3.7,0,7.3-1.8,9.6-4.8l-3.2-2.4c-1.5,2-3.9,3.2-6.4,3.2c-4.4,0-8-3.6-8-8S90.1,32,94.5,32z"/>
	<path class="st0" d="M168.4,42L168.4,42l-5.8-14h0h-4.3h0l-5.8,14h0v0l-4.1,9.9h4.3l2.5-6h10.7l2.5,6h4.3L168.4,42L168.4,42z
		 M156.7,42l3.7-8.9l3.7,8.9H156.7z"/>
	<polygon class="st0" points="198.5,52 198.3,51.8 198.3,28 194.3,28 194.3,46.5 180.5,28 176.2,28 176.4,28.2 176.4,52 180.4,52 
		180.4,33.5 194.2,52 194.3,52 194.3,52 198.3,52 198.3,52 	"/>
</g>
</svg>
